<svg id="svg" version="1.1" width="1598" height="450" viewBox="0 0 400 70" preserveAspectRatio="xMidYMid meet" xmlns="http://www.w3.org/2000/svg" xmlns:xlink="http://www.w3.org/1999/xlink" >
	<g>
		<path id="path0" d="M164.205 30.163 L 164.205 60.075 167.689 60.075 L 171.173 60.075 171.978 57.635 C 172.422 56.292,172.822 55.150,172.869 55.096 C 172.916 55.041,173.736 55.735,174.692 56.636 C 181.818 63.358,193.881 61.925,199.258 53.718 C 204.431 45.820,203.864 28.888,198.199 22.116 C 192.426 15.213,180.782 14.708,174.814 21.102 L 173.091 22.947 173.255 19.922 C 173.346 18.258,173.430 13.151,173.443 8.573 L 173.467 0.250 168.836 0.250 L 164.205 0.250 164.205 30.163 M208.260 30.163 L 208.260 60.075 212.891 60.075 L 217.522 60.075 217.528 49.750 C 217.537 32.726,218.046 29.611,221.292 26.692 C 224.670 23.655,231.464 23.445,234.232 26.293 C 236.461 28.587,236.546 29.307,236.546 45.967 L 236.546 60.075 241.176 60.075 L 245.807 60.075 245.807 44.572 C 245.807 27.335,245.772 26.878,244.186 23.636 C 240.210 15.505,225.707 14.046,219.109 21.113 L 217.397 22.946 217.479 11.598 L 217.562 0.250 212.911 0.250 L 208.260 0.250 208.260 30.163 M320.652 8.073 C 320.652 15.043,320.901 20.491,321.298 22.262 C 321.403 22.730,321.032 22.459,319.702 21.098 C 313.869 15.124,302.957 15.144,296.993 21.139 C 289.227 28.944,289.232 48.673,297.002 56.469 C 302.973 62.461,313.996 62.292,319.660 56.121 C 320.456 55.254,321.157 54.634,321.217 54.744 C 321.277 54.854,321.645 56.098,322.033 57.509 L 322.739 60.075 326.326 60.075 L 329.912 60.075 329.912 30.163 L 329.912 0.250 325.282 0.250 L 320.651 0.250 320.652 8.073 M94.368 17.131 C 87.229 18.630,83.741 22.249,83.737 28.160 C 83.733 34.781,86.110 37.276,96.496 41.551 C 104.407 44.808,106.366 46.530,105.771 49.702 C 104.936 54.152,95.707 54.912,86.519 51.286 C 85.162 50.751,83.951 50.313,83.828 50.313 C 83.705 50.313,83.605 52.103,83.605 54.291 L 83.605 58.270 85.213 58.914 C 90.426 61.001,100.262 61.416,105.624 59.775 C 111.989 57.827,114.768 54.227,114.768 47.930 C 114.768 41.272,112.441 38.762,102.628 34.838 C 94.435 31.561,92.869 30.421,92.867 27.731 C 92.864 23.537,99.934 22.667,108.679 25.787 L 111.394 26.755 111.732 25.956 C 113.080 22.761,114.217 20.120,114.314 19.957 C 114.509 19.630,111.665 18.505,108.636 17.709 C 105.174 16.800,97.436 16.487,94.368 17.131 M265.081 17.041 C 261.659 17.631,255.749 19.516,254.990 20.259 C 254.840 20.405,257.235 26.292,257.732 26.999 C 257.767 27.049,258.731 26.690,259.874 26.200 C 269.655 22.013,276.291 23.387,277.334 29.816 C 278.045 34.198,278.377 33.953,271.464 34.140 C 255.140 34.579,248.282 40.480,250.949 51.791 C 253.283 61.693,268.001 64.296,276.197 56.256 C 277.286 55.188,278.203 54.343,278.235 54.379 C 278.266 54.414,278.675 55.682,279.143 57.196 L 279.994 59.950 283.311 60.020 L 286.628 60.090 286.545 43.499 C 286.453 25.210,286.538 26.222,284.821 23.001 C 282.242 18.162,273.639 15.564,265.081 17.041 M355.444 17.331 C 352.307 18.423,349.529 20.563,347.642 23.342 C 346.407 25.161,346.509 25.288,345.850 21.113 L 345.302 17.647 341.612 17.578 L 337.922 17.509 337.922 38.792 L 337.922 60.075 342.553 60.075 L 347.184 60.075 347.188 48.248 C 347.194 33.454,347.390 32.284,350.430 28.974 C 353.258 25.893,358.645 24.423,362.939 25.562 C 363.307 25.659,364.395 17.379,364.058 17.040 C 363.583 16.562,357.016 16.784,355.444 17.331 M377.727 17.167 C 373.776 17.887,368.210 19.847,368.210 20.518 C 368.210 20.761,370.857 26.760,371.048 26.952 C 371.090 26.994,372.236 26.574,373.594 26.019 C 384.163 21.702,390.356 23.621,390.689 31.315 C 390.814 34.198,391.061 34.033,386.608 34.041 C 372.049 34.068,364.991 37.720,363.924 45.778 C 362.779 54.427,367.523 60.254,376.114 60.751 C 382.188 61.102,386.300 59.648,389.895 55.879 C 390.739 54.994,391.486 54.365,391.555 54.482 C 391.656 54.653,392.424 57.137,393.148 59.637 C 393.261 60.026,393.651 60.075,396.650 60.075 L 400.024 60.075 399.940 43.867 C 399.848 26.149,399.879 26.548,398.326 23.375 C 395.728 18.071,387.075 15.462,377.727 17.167 M119.399 32.508 C 119.399 51.725,119.657 53.357,123.263 56.963 C 129.171 62.871,143.268 61.790,147.764 55.084 C 148.310 54.270,148.400 54.413,148.968 56.990 C 149.236 58.205,149.515 59.396,149.588 59.637 C 149.706 60.028,150.110 60.075,153.334 60.075 L 156.946 60.075 156.946 38.798 L 156.946 17.522 152.315 17.522 L 147.685 17.522 147.685 29.394 C 147.685 44.180,147.429 46.309,145.266 49.493 C 142.512 53.549,134.611 54.616,131.281 51.382 C 128.845 49.016,128.672 47.666,128.666 30.976 L 128.661 17.522 124.030 17.522 L 119.399 17.522 119.399 32.508 M186.375 24.647 C 190.498 25.872,192.699 29.484,193.203 35.852 C 194.137 47.659,189.976 54.054,182.009 53.054 C 175.918 52.289,173.611 48.305,173.611 38.548 C 173.611 30.965,174.772 27.588,178.080 25.543 C 179.988 24.364,183.973 23.933,186.375 24.647 M314.930 25.010 C 319.300 26.675,320.983 30.526,321.011 38.924 C 321.045 49.335,318.377 53.090,310.889 53.165 C 303.951 53.235,301.001 49.024,301.001 39.049 C 301.001 27.296,306.469 21.786,314.930 25.010 M277.303 43.116 C 277.117 49.779,273.910 53.208,267.584 53.508 C 261.845 53.779,258.989 50.674,260.427 45.727 C 261.633 41.576,265.325 40.207,276.307 39.836 L 277.396 39.800 277.303 43.116 M390.738 42.165 C 390.738 49.330,387.395 53.204,380.945 53.515 C 375.948 53.756,373.487 51.912,373.472 47.917 C 373.451 42.133,377.168 40.280,389.675 39.837 L 390.738 39.800 390.738 42.165 M139.925 80.726 L 139.925 89.862 141.051 89.862 L 142.178 89.862 142.178 80.726 L 142.178 71.589 141.051 71.589 L 139.925 71.589 139.925 80.726 M266.834 80.726 L 266.834 89.862 267.960 89.862 L 269.086 89.862 269.086 87.528 C 269.086 85.196,269.922 83.317,270.539 84.260 C 270.635 84.407,271.610 85.727,272.707 87.194 L 274.700 89.862 276.038 89.862 C 277.042 89.862,277.329 89.784,277.189 89.549 C 277.086 89.377,275.857 87.714,274.458 85.853 L 271.915 82.470 274.536 79.721 L 277.158 76.971 275.814 76.893 C 274.512 76.818,274.439 76.849,273.468 77.900 C 272.917 78.496,271.705 79.800,270.776 80.798 L 269.086 82.613 269.086 77.101 L 269.086 71.589 267.960 71.589 L 266.834 71.589 266.834 80.726 M320.193 74.939 L 320.275 78.288 319.576 77.699 C 315.712 74.444,311.014 77.612,311.014 83.473 C 311.014 89.174,315.293 92.092,319.484 89.248 L 320.370 88.646 320.448 89.192 C 320.510 89.624,320.720 89.753,321.464 89.815 L 322.403 89.893 322.403 80.741 L 322.403 71.589 321.257 71.589 L 320.111 71.589 320.193 74.939 M83.605 81.227 L 83.605 89.862 88.486 89.862 L 93.367 89.862 93.367 88.861 L 93.367 87.860 89.612 87.860 L 85.857 87.860 85.857 80.225 L 85.857 72.591 84.731 72.591 L 83.605 72.591 83.605 81.227 M159.227 73.140 C 159.017 73.688,153.036 88.873,152.758 89.564 C 152.657 89.814,152.918 89.874,153.844 89.815 L 155.063 89.737 156.044 87.165 L 157.026 84.592 160.396 84.662 L 163.766 84.731 164.778 87.297 L 165.790 89.862 166.998 89.862 L 168.206 89.862 167.832 88.924 C 167.626 88.407,166.114 84.549,164.472 80.350 L 161.488 72.716 160.468 72.639 C 159.597 72.573,159.416 72.646,159.227 73.140 M219.775 81.201 L 219.775 89.862 223.717 89.861 C 228.043 89.859,229.138 89.665,230.289 88.696 C 232.679 86.686,232.311 82.546,229.629 81.253 L 228.599 80.757 229.376 80.366 C 232.089 79.001,231.959 74.740,229.161 73.342 C 228.011 72.767,227.583 72.709,223.842 72.628 L 219.775 72.539 219.775 81.201 M288.360 81.227 L 288.360 89.862 293.367 89.862 L 298.373 89.862 298.373 88.861 L 298.373 87.860 294.493 87.860 L 290.613 87.860 290.613 80.225 L 290.613 72.591 289.487 72.591 L 288.360 72.591 288.360 81.227 M302.807 74.030 C 302.751 74.133,302.556 74.769,302.374 75.444 C 302.084 76.515,301.921 76.717,301.084 77.046 C 299.664 77.604,299.692 78.598,301.126 78.598 L 302.128 78.598 302.128 83.241 C 302.128 89.407,302.510 90.113,305.849 90.113 C 307.874 90.113,308.135 89.980,308.135 88.951 L 308.135 88.093 306.928 88.253 C 305.872 88.393,305.630 88.334,304.988 87.783 L 304.255 87.153 304.176 82.876 L 304.097 78.598 305.991 78.598 L 307.885 78.598 307.885 77.722 L 307.885 76.846 306.008 76.846 L 304.130 76.846 304.130 75.344 C 304.130 73.921,303.307 73.103,302.807 74.030 M227.085 74.854 C 229.032 75.394,229.641 77.413,228.306 78.907 L 227.577 79.725 224.802 79.809 L 222.028 79.894 222.028 77.244 L 222.028 74.593 224.093 74.595 C 225.228 74.595,226.575 74.712,227.085 74.854 M161.715 79.041 L 162.853 82.228 160.493 82.300 C 159.195 82.339,158.100 82.338,158.058 82.297 C 157.950 82.189,160.301 75.857,160.451 75.855 C 160.519 75.854,161.088 77.288,161.715 79.041 M100.152 76.956 C 96.731 78.072,95.164 83.413,97.135 87.239 C 99.647 92.116,107.088 90.783,108.128 85.270 C 109.226 79.450,105.242 75.297,100.152 76.956 M116.235 76.819 C 110.955 78.183,110.381 87.607,115.449 89.724 C 116.533 90.177,119.456 90.241,120.613 89.838 C 121.652 89.476,121.872 87.409,120.839 87.722 C 116.629 88.996,114.393 87.505,114.393 83.427 C 114.394 79.403,115.587 78.483,120.253 78.907 C 121.391 79.011,121.992 77.464,120.967 77.072 C 120.039 76.718,117.211 76.567,116.235 76.819 M128.786 76.751 C 127.369 77.111,125.907 77.659,125.907 77.830 C 125.907 77.936,126.027 78.367,126.174 78.787 L 126.440 79.550 127.794 79.074 C 130.466 78.135,132.174 78.564,132.655 80.295 C 133.142 82.051,133.176 82.023,130.440 82.155 C 125.565 82.390,123.223 84.880,124.844 88.105 C 126.034 90.474,130.126 90.929,132.225 88.926 L 132.911 88.272 133.070 89.067 C 133.211 89.772,133.325 89.862,134.074 89.862 L 134.919 89.862 134.918 84.668 C 134.918 78.871,134.756 78.151,133.257 77.286 C 132.470 76.832,129.747 76.506,128.786 76.751 M176.010 76.972 C 175.551 77.175,174.861 77.677,174.477 78.088 L 173.779 78.835 173.620 77.841 C 173.470 76.902,173.412 76.846,172.588 76.846 L 171.715 76.846 171.715 83.354 L 171.715 89.862 172.825 89.862 L 173.935 89.862 174.014 85.499 C 174.113 79.986,174.819 78.723,177.803 78.723 L 179.099 78.723 179.099 77.722 L 179.099 76.721 177.972 76.662 C 177.353 76.630,176.470 76.769,176.010 76.972 M185.982 76.875 C 182.039 78.062,180.579 84.894,183.546 88.273 C 185.792 90.831,192.259 90.900,192.444 88.369 C 192.514 87.415,192.471 87.314,192.069 87.478 C 188.014 89.122,185.075 88.051,184.362 84.668 L 184.191 83.855 188.591 83.855 L 192.991 83.855 192.991 82.142 C 192.991 78.182,189.744 75.742,185.982 76.875 M200.876 76.751 C 198.067 77.466,197.733 77.745,198.273 78.928 L 198.548 79.532 199.777 79.065 C 202.699 77.955,204.756 78.726,204.756 80.931 L 204.756 82.034 202.437 82.156 C 197.574 82.410,195.162 85.123,196.938 88.341 C 198.122 90.487,202.316 90.833,204.293 88.947 L 204.956 88.315 205.126 89.088 C 205.276 89.769,205.399 89.862,206.153 89.862 L 207.009 89.862 207.003 84.793 C 206.997 79.057,206.754 77.996,205.269 77.228 C 204.472 76.816,201.772 76.523,200.876 76.751 M239.675 76.751 C 238.258 77.111,236.796 77.659,236.796 77.830 C 236.796 78.606,237.396 79.613,237.765 79.456 C 240.879 78.126,242.746 78.301,243.450 79.987 C 244.243 81.884,244.108 82.021,241.328 82.155 C 237.395 82.344,235.586 83.519,235.370 86.026 C 235.045 89.798,240.183 91.722,243.114 88.926 L 243.800 88.272 243.959 89.067 C 244.100 89.772,244.214 89.862,244.962 89.862 L 245.807 89.862 245.807 84.668 C 245.806 78.871,245.644 78.151,244.145 77.286 C 243.359 76.832,240.636 76.506,239.675 76.751 M255.328 76.875 C 254.851 77.020,254.158 77.354,253.788 77.618 C 252.916 78.239,252.816 78.224,252.816 77.472 C 252.816 76.909,252.716 76.846,251.815 76.846 L 250.814 76.846 250.814 83.354 L 250.814 89.862 251.920 89.862 L 253.026 89.862 253.109 85.419 C 253.176 81.816,253.273 80.829,253.619 80.196 C 254.542 78.509,257.527 78.014,258.843 79.330 L 259.574 80.062 259.574 84.962 L 259.574 89.862 260.715 89.862 L 261.855 89.862 261.779 84.498 C 261.694 78.548,261.627 78.295,259.860 77.260 C 258.919 76.709,256.539 76.507,255.328 76.875 M104.773 79.656 C 106.851 81.924,106.332 86.636,103.862 87.936 C 100.519 89.695,97.292 85.147,98.890 80.930 C 99.824 78.466,103.044 77.769,104.773 79.656 M189.269 78.990 C 190.030 79.384,190.738 80.639,190.738 81.594 C 190.738 82.078,190.588 82.103,187.610 82.103 C 184.059 82.103,183.816 81.911,185.051 80.078 C 186.036 78.617,187.711 78.185,189.269 78.990 M318.430 78.990 C 320.592 80.108,320.824 86.368,318.754 87.724 C 316.165 89.421,313.453 87.673,313.204 84.147 C 312.902 79.887,315.399 77.423,318.430 78.990 M227.303 82.104 C 229.111 82.606,229.947 84.391,229.206 86.165 C 228.650 87.494,227.677 87.894,224.612 88.050 L 222.028 88.182 222.028 85.017 L 222.028 81.852 224.218 81.854 C 225.422 81.854,226.811 81.967,227.303 82.104 M132.666 84.743 C 132.666 87.671,129.283 89.522,127.390 87.629 C 125.795 86.034,126.979 84.223,129.858 83.854 C 132.750 83.483,132.666 83.456,132.666 84.743 M204.756 84.631 C 204.756 87.355,202.040 89.169,199.741 87.980 C 197.573 86.859,198.956 84.235,201.915 83.857 C 204.812 83.487,204.756 83.472,204.756 84.631 M243.662 84.793 C 243.328 87.093,241.990 88.341,239.843 88.355 C 238.949 88.361,237.547 87.240,237.547 86.519 C 237.547 84.643,239.164 83.789,243.007 83.637 L 243.835 83.605 243.662 84.793 M92.866 103.379 L 92.866 109.136 93.742 109.136 L 94.618 109.136 94.624 107.071 C 94.635 103.521,95.129 102.378,96.654 102.378 C 97.845 102.378,98.123 103.122,98.123 106.314 L 98.123 109.136 99.124 109.136 L 100.125 109.136 100.121 105.945 C 100.116 101.165,98.590 99.548,95.547 101.099 L 94.618 101.573 94.618 99.598 L 94.618 97.622 93.742 97.622 L 92.866 97.622 92.866 103.379 M160.951 99.663 L 160.951 101.705 160.434 101.237 C 158.974 99.916,156.024 101.026,155.444 103.115 C 154.316 107.177,156.954 110.517,160.028 108.920 C 160.819 108.508,161.005 108.485,161.118 108.780 C 161.194 108.976,161.581 109.136,161.979 109.136 L 162.703 109.136 162.703 103.379 L 162.703 97.622 161.827 97.622 L 160.951 97.622 160.951 99.663 M211.014 99.468 L 211.014 101.315 209.896 100.913 C 207.355 99.999,205.676 101.469,205.557 104.712 C 205.415 108.594,207.887 110.541,210.656 108.726 C 211.213 108.361,211.264 108.362,211.264 108.732 C 211.264 109.027,211.501 109.136,212.140 109.136 L 213.016 109.136 213.016 103.379 L 213.016 97.622 212.015 97.622 L 211.014 97.622 211.014 99.468 M225.782 103.379 L 225.782 109.136 226.541 109.136 C 226.958 109.136,227.359 108.983,227.431 108.795 C 227.537 108.519,227.741 108.546,228.487 108.934 C 231.209 110.350,233.466 108.227,233.253 104.451 C 233.084 101.457,231.328 100.040,228.879 100.921 L 227.785 101.315 227.785 99.468 L 227.785 97.622 226.783 97.622 L 225.782 97.622 225.782 103.379 M241.302 103.379 L 241.302 109.136 242.178 109.136 L 243.054 109.136 243.054 103.379 L 243.054 97.622 242.178 97.622 L 241.302 97.622 241.302 103.379 M236.149 98.214 C 235.789 99.151,236.139 99.750,237.046 99.750 C 238.355 99.750,238.412 98.045,237.107 97.919 C 236.560 97.866,236.245 97.963,236.149 98.214 M246.412 98.214 C 246.052 99.151,246.402 99.750,247.309 99.750 C 248.618 99.750,248.675 98.045,247.370 97.919 C 246.823 97.866,246.508 97.963,246.412 98.214 M83.104 99.124 L 83.104 99.875 84.731 99.875 L 86.358 99.875 86.358 104.506 L 86.358 109.136 87.359 109.136 L 88.360 109.136 88.360 104.506 L 88.360 99.875 89.862 99.875 L 91.364 99.875 91.364 99.124 L 91.364 98.373 87.234 98.373 L 83.104 98.373 83.104 99.124 M252.059 99.766 C 251.925 100.119,251.815 100.495,251.815 100.602 C 251.815 100.709,251.533 100.924,251.189 101.081 C 250.416 101.433,250.325 102.378,251.064 102.378 C 251.526 102.378,251.565 102.545,251.566 104.568 C 251.568 108.552,252.357 109.636,254.965 109.245 C 256.017 109.088,256.070 109.039,256.070 108.248 C 256.070 107.430,256.054 107.418,255.156 107.564 C 253.830 107.779,253.567 107.287,253.567 104.583 L 253.567 102.378 254.693 102.378 C 255.778 102.378,255.820 102.350,255.820 101.627 C 255.820 100.904,255.778 100.876,254.693 100.876 C 253.573 100.876,253.567 100.871,253.567 100.000 C 253.567 98.866,252.466 98.696,252.059 99.766 M105.292 100.871 C 102.231 101.841,101.791 107.085,104.631 108.744 C 106.501 109.836,109.637 109.356,109.637 107.978 C 109.637 107.220,109.569 107.109,109.199 107.265 C 107.915 107.806,106.180 107.705,105.525 107.050 C 104.305 105.830,104.582 105.632,107.509 105.632 L 110.138 105.632 110.137 104.568 C 110.136 101.867,107.793 100.078,105.292 100.871 M120.328 101.099 C 119.594 101.474,119.399 101.500,119.399 101.225 C 119.399 100.993,119.105 100.876,118.523 100.876 L 117.647 100.876 117.647 105.006 L 117.647 109.136 118.648 109.136 L 119.650 109.136 119.650 106.372 C 119.650 103.320,120.085 102.378,121.498 102.378 C 122.710 102.378,122.904 102.897,122.904 106.151 L 122.904 109.136 123.905 109.136 L 124.906 109.136 124.906 105.870 C 124.906 100.981,123.479 99.493,120.328 101.099 M129.984 100.891 C 127.242 101.727,126.790 107.405,129.360 108.734 C 131.495 109.838,134.668 109.377,134.668 107.963 C 134.668 107.158,134.616 107.092,134.105 107.251 C 131.820 107.962,130.190 107.563,129.792 106.195 C 129.630 105.636,129.649 105.632,132.273 105.632 L 134.919 105.632 134.918 104.318 C 134.916 101.563,132.739 100.051,129.984 100.891 M167.584 101.098 C 165.165 102.212,164.706 106.484,166.808 108.330 C 168.541 109.851,172.466 109.596,172.466 107.962 C 172.466 107.224,172.394 107.108,172.028 107.253 C 170.033 108.039,167.997 107.510,167.631 106.111 C 167.514 105.661,167.671 105.632,170.271 105.632 L 173.036 105.632 172.889 104.207 C 172.586 101.272,170.219 99.885,167.584 101.098 M178.849 100.795 C 178.573 100.868,178.153 101.100,177.915 101.311 C 177.525 101.657,177.467 101.655,177.325 101.286 C 177.222 101.018,176.874 100.876,176.319 100.876 L 175.469 100.876 175.469 106.758 L 175.469 112.641 176.471 112.641 L 177.472 112.641 177.472 110.638 C 177.472 108.711,177.598 108.362,178.110 108.873 C 178.613 109.376,180.324 109.424,181.218 108.960 C 185.034 106.982,182.924 99.713,178.849 100.795 M187.896 100.883 C 184.894 101.783,184.468 107.309,187.286 108.797 C 189.208 109.812,192.240 109.311,192.240 107.978 C 192.240 107.220,192.172 107.109,191.802 107.265 C 190.518 107.806,188.783 107.705,188.128 107.050 C 186.908 105.830,187.185 105.632,190.113 105.632 L 192.741 105.632 192.741 104.481 C 192.741 101.679,190.584 100.077,187.896 100.883 M198.170 101.091 C 197.379 101.504,197.193 101.528,197.079 101.232 C 197.004 101.036,196.617 100.876,196.219 100.876 L 195.494 100.876 195.494 105.006 L 195.494 109.136 196.496 109.136 L 197.497 109.136 197.497 106.301 C 197.497 103.173,197.860 102.378,199.289 102.378 C 200.512 102.378,200.751 103.004,200.751 106.215 L 200.751 109.136 201.771 109.136 L 202.791 109.136 202.710 105.637 C 202.632 102.287,202.602 102.111,202.000 101.510 C 201.109 100.620,199.426 100.435,198.170 101.091 M217.812 100.861 C 216.611 101.165,216.372 101.477,216.734 102.271 C 216.958 102.764,217.141 102.879,217.465 102.734 C 218.688 102.185,220.255 102.310,220.561 102.981 C 220.953 103.842,220.860 103.901,218.732 104.135 C 215.967 104.438,214.956 105.801,215.871 107.991 C 216.492 109.478,219.130 109.812,220.463 108.572 L 221.026 108.048 221.026 108.592 C 221.026 109.047,221.170 109.136,221.902 109.136 L 222.778 109.136 222.777 106.320 C 222.775 101.303,221.520 99.924,217.812 100.861 M136.680 101.189 C 136.686 101.361,137.171 103.191,137.758 105.257 L 138.827 109.011 139.927 109.011 L 141.026 109.011 141.722 106.633 C 142.104 105.325,142.420 104.036,142.423 103.767 C 142.434 102.777,142.871 103.812,143.560 106.458 L 144.263 109.160 145.393 109.086 L 146.522 109.011 147.602 105.131 C 148.903 100.461,148.891 100.876,147.723 100.876 L 146.759 100.876 146.220 102.941 C 145.924 104.077,145.608 105.391,145.517 105.861 C 145.369 106.629,145.275 106.428,144.579 103.858 L 143.805 101.001 142.689 101.001 C 141.438 101.001,141.559 100.787,140.467 104.936 L 140.024 106.618 139.324 103.747 L 138.624 100.876 137.647 100.876 C 137.028 100.876,136.674 100.991,136.680 101.189 M236.045 105.006 L 236.045 109.136 237.046 109.136 L 238.048 109.136 238.048 105.006 L 238.048 100.876 237.046 100.876 L 236.045 100.876 236.045 105.006 M246.308 105.006 L 246.308 109.136 247.309 109.136 L 248.310 109.136 248.310 105.006 L 248.310 100.876 247.309 100.876 L 246.308 100.876 246.308 105.006 M257.142 101.189 C 257.210 101.361,257.955 103.223,258.798 105.328 C 260.600 109.830,260.324 111.633,257.924 111.030 C 257.373 110.892,257.322 110.954,257.322 111.760 L 257.322 112.641 258.643 112.641 C 260.942 112.641,261.022 112.530,263.584 105.821 C 265.646 100.422,265.587 100.828,264.289 100.924 L 263.247 101.001 262.342 103.554 C 261.844 104.958,261.381 106.162,261.313 106.229 C 261.246 106.297,260.758 105.120,260.229 103.614 L 259.267 100.876 258.142 100.876 C 257.343 100.876,257.054 100.967,257.142 101.189 M107.746 102.934 C 108.454 103.945,108.262 104.130,106.508 104.130 C 104.754 104.130,104.563 103.945,105.271 102.934 C 105.543 102.546,105.916 102.378,106.508 102.378 C 107.100 102.378,107.473 102.546,107.746 102.934 M132.337 102.575 C 132.501 102.679,132.751 103.071,132.894 103.447 L 133.154 104.130 131.408 104.130 C 129.531 104.130,129.517 104.122,129.950 103.300 C 130.420 102.407,131.539 102.067,132.337 102.575 M160.184 102.816 C 160.867 103.370,161.147 105.685,160.645 106.629 C 159.849 108.127,157.932 107.852,157.428 106.168 C 156.661 103.608,158.461 101.419,160.184 102.816 M170.574 102.934 C 171.282 103.945,171.091 104.130,169.337 104.130 C 167.983 104.130,167.710 104.060,167.710 103.712 C 167.710 102.446,169.829 101.871,170.574 102.934 M180.316 102.698 C 180.895 103.121,181.223 104.662,180.972 105.775 C 180.235 109.044,177.044 107.655,177.581 104.299 C 177.857 102.575,179.129 101.830,180.316 102.698 M190.281 102.792 C 191.271 103.689,190.885 104.130,189.111 104.130 C 187.357 104.130,187.166 103.945,187.874 102.934 C 188.347 102.259,189.609 102.185,190.281 102.792 M210.495 103.038 C 211.339 104.110,211.137 106.793,210.163 107.443 C 209.555 107.849,208.540 107.626,208.028 106.975 C 206.822 105.442,207.645 102.378,209.262 102.378 C 209.735 102.378,210.151 102.600,210.495 103.038 M230.795 103.066 C 231.482 103.937,231.410 106.309,230.672 107.125 C 229.452 108.472,227.785 107.249,227.785 105.006 C 227.785 102.621,229.547 101.485,230.795 103.066 M220.776 105.849 C 220.776 106.105,220.543 106.612,220.257 106.975 C 219.323 108.163,217.355 107.702,217.702 106.376 C 217.953 105.414,220.776 104.930,220.776 105.849 " stroke="none" fill="#000000" fill-rule="evenodd">
	</path>
</g>
<g>
	<path id="path0" d="M11.713 47.935 C 7.194 50.598,3.574 54.661,2.376 58.414 C 2.133 59.176,1.724 60.233,1.467 60.762 C -0.037 63.861,1.710 78.400,3.586 78.400 C 3.761 78.400,4.122 78.929,4.390 79.576 C 5.004 81.058,8.832 84.726,11.200 86.101 C 18.716 90.466,28.238 90.129,35.441 85.243 C 37.734 83.688,38.223 82.983,36.574 83.610 C 31.954 85.366,21.830 82.155,17.122 77.439 C 9.243 69.546,7.901 56.660,14.051 47.938 C 15.450 45.954,15.075 45.954,11.713 47.935 " stroke="none" fill="#2296be" fill-rule="evenodd">
</path>
</g>
<g>
	<path id="path0" d="M15.251 12.768 C 8.072 15.247,6.189 24.894,11.888 29.994 C 18.581 35.985,29.200 31.291,29.200 22.342 C 29.200 14.963,22.403 10.299,15.251 12.768 " stroke="none" fill="#ff9000" fill-rule="evenodd">
</path>
</g>
<g>
	<path id="path0" d="M41.671 1.345 C 41.885 2.035,42.241 3.205,42.462 3.945 C 42.682 4.685,42.744 6.151,42.600 7.202 C 42.433 8.414,42.495 9.211,42.768 9.380 C 43.387 9.763,43.376 70.644,42.757 71.026 C 42.494 71.189,42.467 71.401,42.690 71.550 C 42.897 71.688,43.278 72.880,43.536 74.200 C 44.554 79.388,48.471 84.604,53.122 86.960 C 54.265 87.540,55.200 88.201,55.200 88.430 C 55.200 88.660,55.356 88.751,55.546 88.633 C 55.736 88.516,57.169 88.663,58.729 88.960 C 62.253 89.631,62.099 89.966,60.495 85.112 C 59.641 82.528,59.220 80.599,59.359 79.904 C 59.481 79.297,59.405 78.800,59.190 78.800 C 58.940 78.800,58.800 68.330,58.800 49.684 C 58.800 17.510,58.874 18.555,56.199 12.883 C 54.384 9.035,49.358 3.898,45.720 2.175 C 44.356 1.529,43.231 0.820,43.220 0.600 C 43.209 0.380,42.768 0.175,42.241 0.145 C 41.345 0.093,41.307 0.172,41.671 1.345 " stroke="none" fill="#6b696a" fill-rule="evenodd">
</path>
</g>
</svg>
